<svg id="visual" viewBox="0 0 1270 700" width="1270" height="700" xmlns="http://www.w3.org/2000/svg" xmlns:xlink="http://www.w3.org/1999/xlink" version="1.1"><rect x="0" y="0" width="1270" height="700" fill="#002233"></rect><path d="M0 99L11.8 96.5C23.7 94 47.3 89 70.8 97.2C94.3 105.3 117.7 126.7 141.2 123.5C164.7 120.3 188.3 92.7 211.8 85.5C235.3 78.3 258.7 91.7 282.2 99C305.7 106.3 329.3 107.7 352.8 99.5C376.3 91.3 399.7 73.7 423.2 80.5C446.7 87.3 470.3 118.7 493.8 132.3C517.3 146 540.7 142 564.2 138.3C587.7 134.7 611.3 131.3 635 123C658.7 114.7 682.3 101.3 705.8 91.5C729.3 81.7 752.7 75.3 776.2 75.8C799.7 76.3 823.3 83.7 846.8 89.7C870.3 95.7 893.7 100.3 917.2 103.3C940.7 106.3 964.3 107.7 987.8 115.2C1011.3 122.7 1034.7 136.3 1058.2 131.7C1081.7 127 1105.3 104 1128.8 91.7C1152.3 79.3 1175.7 77.7 1199.2 77.5C1222.7 77.3 1246.3 78.7 1258.2 79.3L1270 80L1270 0L1258.2 0C1246.3 0 1222.7 0 1199.2 0C1175.7 0 1152.3 0 1128.8 0C1105.3 0 1081.7 0 1058.2 0C1034.7 0 1011.3 0 987.8 0C964.3 0 940.7 0 917.2 0C893.7 0 870.3 0 846.8 0C823.3 0 799.7 0 776.2 0C752.7 0 729.3 0 705.8 0C682.3 0 658.7 0 635 0C611.3 0 587.7 0 564.2 0C540.7 0 517.3 0 493.8 0C470.3 0 446.7 0 423.2 0C399.7 0 376.3 0 352.8 0C329.3 0 305.7 0 282.2 0C258.7 0 235.3 0 211.8 0C188.3 0 164.7 0 141.2 0C117.7 0 94.3 0 70.8 0C47.3 0 23.7 0 11.8 0L0 0Z" fill="#0066FF" stroke-linecap="round" stroke-linejoin="miter"></path></svg>