<svg id="visual" viewBox="0 0 1270 700" width="1270" height="700" xmlns="http://www.w3.org/2000/svg" xmlns:xlink="http://www.w3.org/1999/xlink" version="1.1"><rect x="0" y="0" width="1270" height="700" fill="#002233"></rect><path d="M0 599L11.8 601.5C23.7 604 47.3 609 70.8 600.8C94.3 592.7 117.7 571.3 141.2 574.5C164.7 577.7 188.3 605.3 211.8 612.5C235.3 619.7 258.7 606.3 282.2 599C305.7 591.7 329.3 590.3 352.8 598.5C376.3 606.7 399.7 624.3 423.2 617.5C446.7 610.7 470.3 579.3 493.8 565.7C517.3 552 540.7 556 564.2 559.7C587.7 563.3 611.3 566.7 635 575C658.7 583.3 682.3 596.7 705.8 606.5C729.3 616.3 752.7 622.7 776.2 622.2C799.7 621.7 823.3 614.3 846.8 608.3C870.3 602.3 893.7 597.7 917.2 594.7C940.7 591.7 964.3 590.3 987.8 582.8C1011.3 575.3 1034.7 561.7 1058.2 566.3C1081.7 571 1105.3 594 1128.8 606.3C1152.3 618.7 1175.7 620.3 1199.2 620.5C1222.7 620.7 1246.3 619.3 1258.2 618.7L1270 618L1270 701L1258.2 701C1246.3 701 1222.7 701 1199.2 701C1175.7 701 1152.3 701 1128.8 701C1105.3 701 1081.7 701 1058.2 701C1034.7 701 1011.3 701 987.8 701C964.3 701 940.7 701 917.2 701C893.7 701 870.3 701 846.8 701C823.3 701 799.7 701 776.2 701C752.7 701 729.3 701 705.8 701C682.3 701 658.7 701 635 701C611.3 701 587.7 701 564.2 701C540.7 701 517.3 701 493.8 701C470.3 701 446.7 701 423.2 701C399.7 701 376.3 701 352.8 701C329.3 701 305.7 701 282.2 701C258.7 701 235.3 701 211.8 701C188.3 701 164.7 701 141.2 701C117.7 701 94.3 701 70.8 701C47.3 701 23.7 701 11.8 701L0 701Z" fill="#0066FF" stroke-linecap="round" stroke-linejoin="miter"></path></svg>